<svg xmlns="http://www.w3.org/2000/svg" xmlns:xlink="http://www.w3.org/1999/xlink" width="500" zoomAndPan="magnify" viewBox="0 0 375 374.999991" height="500" preserveAspectRatio="xMidYMid meet" version="1.0"><defs><clipPath id="8178da2d0b"><path d="M 9.175781 167 L 151 167 L 151 327 L 9.175781 327 Z M 9.175781 167 " clip-rule="nonzero"/></clipPath><clipPath id="dddd6c4cd4"><path d="M 17 124 L 363.925781 124 L 363.925781 325 L 17 325 Z M 17 124 " clip-rule="nonzero"/></clipPath><clipPath id="5409024e76"><path d="M 103 15.175781 L 204 15.175781 L 204 181 L 103 181 Z M 103 15.175781 " clip-rule="nonzero"/></clipPath></defs><path fill="#dd7b4a" d="M 243.730469 140.460938 C 243.738281 140.613281 243.738281 140.753906 243.730469 140.90625 C 243.703125 145.65625 243.605469 150.550781 243.460938 155.460938 C 243.378906 158.246094 243.277344 161.039062 243.171875 163.824219 C 242.945312 169.792969 242.664062 175.703125 242.355469 181.363281 C 241.996094 187.941406 241.613281 194.195312 241.21875 199.78125 C 240.820312 205.699219 240.417969 210.894531 240.101562 214.96875 C 239.585938 221.4375 236.085938 227.273438 230.625 230.800781 C 214.734375 241.074219 190.441406 253.011719 178.382812 258.746094 C 173.574219 261.039062 168.0625 261.421875 162.996094 259.746094 C 142.703125 253.027344 116.25 240.15625 101.535156 232.667969 C 94.648438 229.175781 90.261719 222.148438 90.179688 214.429688 C 90.136719 210.328125 90.121094 206.242188 90.128906 202.179688 C 90.15625 194.960938 90.253906 187.867188 90.40625 181.105469 C 90.453125 178.78125 90.503906 176.488281 90.570312 174.261719 C 90.679688 170.242188 90.804688 166.398438 90.9375 162.765625 C 90.980469 161.730469 91.011719 160.714844 91.046875 159.710938 C 91.105469 158.335938 91.15625 157.003906 91.207031 155.703125 C 91.355469 151.992188 91.515625 148.589844 91.664062 145.574219 C 91.746094 143.824219 91.832031 142.207031 91.90625 140.730469 C 91.929688 140.40625 91.9375 140.097656 91.957031 139.777344 C 92.289062 133.625 95.324219 127.925781 100.265625 124.238281 C 116.597656 112.058594 143.210938 99.171875 156.375 93.109375 C 161.417969 90.792969 167.1875 90.558594 172.390625 92.527344 C 200.359375 103.121094 222.101562 115.394531 233.882812 122.671875 C 239.46875 126.132812 243.0625 131.984375 243.644531 138.445312 C 243.703125 139.113281 243.738281 139.789062 243.730469 140.460938 Z M 243.730469 140.460938 " fill-opacity="1" fill-rule="nonzero"/><path fill="#a10017" d="M 244.804688 156.953125 C 244.789062 158.777344 244.78125 160.761719 244.761719 162.898438 C 244.730469 165.03125 244.605469 167.316406 244.503906 169.75 L 244.15625 177.3125 C 244.046875 179.828125 243.921875 182.355469 243.746094 184.875 L 242.804688 199.988281 L 241.679688 215.09375 C 241.253906 220.515625 238.761719 225.722656 234.824219 229.460938 C 233.839844 230.386719 232.78125 231.253906 231.648438 231.984375 L 228.414062 234.027344 L 225.15625 236.003906 L 221.871094 237.929688 C 217.476562 240.464844 213.042969 242.898438 208.5625 245.265625 C 199.617188 250 190.566406 254.503906 181.445312 258.863281 C 180.277344 259.40625 179.21875 259.949219 177.941406 260.488281 C 176.699219 261.007812 175.40625 261.40625 174.089844 261.683594 C 171.457031 262.242188 168.722656 262.316406 166.0625 261.890625 C 164.746094 261.683594 163.402344 261.332031 162.175781 260.90625 L 158.574219 259.65625 C 156.191406 258.789062 153.816406 257.898438 151.457031 256.972656 C 142.019531 253.253906 132.773438 249.132812 123.628906 244.816406 C 119.050781 242.65625 114.507812 240.449219 109.980469 238.195312 L 103.210938 234.785156 C 102.085938 234.210938 100.976562 233.660156 99.792969 232.984375 C 98.667969 232.285156 97.558594 231.527344 96.574219 230.636719 C 94.558594 228.902344 92.921875 226.75 91.65625 224.425781 C 90.445312 222.066406 89.597656 219.503906 89.3125 216.863281 C 89.128906 215.546875 89.15625 214.203125 89.144531 212.96875 L 89.144531 209.175781 L 89.164062 201.597656 C 89.386719 181.390625 90.089844 161.195312 91.179688 141.03125 C 91.238281 139.796875 91.332031 138.460938 91.5625 137.1875 C 91.78125 135.902344 92.148438 134.644531 92.605469 133.425781 C 93.515625 130.984375 94.890625 128.722656 96.609375 126.773438 C 97.457031 125.789062 98.425781 124.90625 99.441406 124.105469 C 100.46875 123.3125 101.5 122.613281 102.535156 121.871094 C 104.621094 120.429688 106.71875 119.019531 108.863281 117.679688 C 117.417969 112.277344 126.304688 107.449219 135.300781 102.878906 C 139.800781 100.597656 144.335938 98.378906 148.898438 96.226562 C 151.171875 95.144531 153.464844 94.085938 155.757812 93.042969 C 158.058594 91.949219 160.558594 91.226562 163.109375 91.007812 C 165.664062 90.78125 168.246094 91.015625 170.707031 91.707031 C 171.949219 92.042969 173.117188 92.550781 174.28125 93 L 177.800781 94.382812 C 182.476562 96.277344 187.121094 98.246094 191.714844 100.3125 C 200.902344 104.457031 209.929688 108.949219 218.75 113.816406 C 223.160156 116.253906 227.523438 118.769531 231.816406 121.394531 C 232.882812 122.0625 233.964844 122.695312 235 123.421875 C 236.027344 124.15625 236.976562 124.988281 237.851562 125.890625 C 239.59375 127.699219 241.027344 129.824219 242.003906 132.144531 C 243.128906 134.777344 243.394531 136.953125 243.445312 138.363281 C 243.4375 139.789062 243.347656 140.488281 243.238281 140.488281 C 243.121094 140.488281 242.988281 139.789062 242.820312 138.421875 C 242.59375 137.070312 242.21875 135.019531 241.136719 132.507812 C 240.195312 130.308594 238.820312 128.300781 237.152344 126.582031 C 236.308594 125.730469 235.402344 124.941406 234.425781 124.257812 C 233.457031 123.589844 232.359375 122.945312 231.289062 122.289062 C 226.996094 119.703125 222.644531 117.21875 218.234375 114.820312 C 209.421875 110.015625 200.402344 105.597656 191.230469 101.519531 C 186.636719 99.488281 182.003906 97.5625 177.335938 95.703125 L 173.816406 94.34375 L 172.058594 93.667969 C 171.488281 93.460938 170.929688 93.269531 170.355469 93.109375 C 168.0625 92.476562 165.664062 92.257812 163.292969 92.476562 C 160.910156 92.691406 158.625 93.359375 156.441406 94.402344 C 154.164062 95.460938 151.882812 96.535156 149.621094 97.628906 C 145.085938 99.804688 140.578125 102.046875 136.109375 104.347656 C 127.171875 108.957031 118.34375 113.828125 109.898438 119.238281 C 107.777344 120.585938 105.710938 121.988281 103.660156 123.429688 C 102.667969 124.164062 101.601562 124.898438 100.660156 125.632812 C 99.734375 126.363281 98.867188 127.175781 98.089844 128.066406 C 96.539062 129.839844 95.308594 131.902344 94.488281 134.117188 C 94.082031 135.226562 93.757812 136.371094 93.566406 137.527344 C 93.355469 138.703125 93.289062 139.820312 93.230469 141.136719 C 92.273438 161.28125 91.6875 181.472656 91.582031 201.65625 L 91.605469 209.226562 L 91.621094 213.011719 C 91.628906 213.628906 91.605469 214.304688 91.648438 214.871094 L 91.6875 215.746094 L 91.789062 216.621094 C 92.054688 218.953125 92.832031 221.207031 93.914062 223.28125 C 95.046875 225.332031 96.507812 227.207031 98.300781 228.726562 C 99.175781 229.507812 100.152344 230.160156 101.152344 230.769531 C 102.136719 231.335938 103.308594 231.902344 104.425781 232.46875 L 111.195312 235.835938 C 115.722656 238.0625 120.269531 240.238281 124.835938 242.363281 C 133.972656 246.617188 143.195312 250.683594 152.566406 254.320312 C 154.90625 255.230469 157.257812 256.097656 159.617188 256.945312 L 163.167969 258.164062 C 164.3125 258.546875 165.421875 258.820312 166.578125 258.996094 C 168.878906 259.339844 171.25 259.253906 173.523438 258.746094 C 174.667969 258.496094 175.773438 258.136719 176.851562 257.6875 L 177.652344 257.328125 L 178.5 256.921875 L 180.203125 256.105469 C 189.28125 251.734375 198.285156 247.21875 207.164062 242.488281 C 211.597656 240.121094 216 237.695312 220.34375 235.179688 C 222.511719 233.917969 224.664062 232.628906 226.789062 231.320312 C 227.832031 230.652344 228.921875 229.984375 229.933594 229.316406 C 230.90625 228.683594 231.808594 227.933594 232.648438 227.132812 C 236.007812 223.90625 238.125 219.4375 238.460938 214.785156 L 239.578125 199.738281 C 239.886719 194.71875 240.203125 189.699219 240.511719 184.691406 C 240.679688 182.179688 240.804688 179.671875 240.917969 177.164062 L 241.277344 169.632812 C 241.394531 167.199219 241.511719 164.921875 241.613281 162.796875 C 241.703125 160.671875 241.785156 158.695312 241.863281 156.871094 C 242.035156 153.226562 242.238281 150.183594 242.445312 147.757812 C 242.863281 142.898438 243.328125 140.480469 243.710938 140.488281 C 244.121094 140.496094 244.445312 142.949219 244.628906 147.832031 C 244.761719 150.242188 244.8125 153.292969 244.804688 156.953125 Z M 244.804688 156.953125 " fill-opacity="1" fill-rule="nonzero"/><path fill="#f9aabb" d="M 362.261719 228.300781 C 362.261719 234.226562 362.222656 239.429688 362.171875 243.523438 C 362.097656 250.011719 359.003906 256.078125 353.792969 259.957031 C 338.636719 271.277344 315.203125 284.832031 303.570312 291.378906 C 298.929688 293.988281 293.460938 294.746094 288.28125 293.421875 C 267.582031 288.09375 240.320312 277.046875 225.128906 270.578125 C 218.027344 267.558594 213.167969 260.847656 212.558594 253.144531 C 212.242188 249.058594 211.949219 244.984375 211.683594 240.929688 C 211.214844 233.726562 210.832031 226.632812 210.523438 219.878906 C 210.222656 213.378906 209.988281 207.207031 209.816406 201.546875 C 209.597656 195.027344 209.464844 189.191406 209.371094 184.347656 C 209.339844 182.597656 209.304688 180.972656 209.289062 179.496094 C 209.289062 179.171875 209.28125 178.855469 209.273438 178.546875 C 209.1875 172.386719 211.824219 166.492188 216.519531 162.472656 C 231.984375 149.214844 257.660156 134.550781 270.390625 127.617188 C 275.257812 124.964844 281.003906 124.339844 286.324219 125.949219 C 314.953125 134.617188 337.46875 145.390625 349.714844 151.859375 C 355.527344 154.925781 359.511719 160.53125 360.53125 166.933594 C 360.636719 167.589844 360.714844 168.257812 360.753906 168.941406 C 360.761719 169.09375 360.78125 169.234375 360.78125 169.382812 C 361.246094 176.820312 361.5625 184.597656 361.773438 192.285156 C 361.957031 198.246094 362.070312 204.171875 362.148438 209.84375 C 362.238281 216.4375 362.28125 222.699219 362.261719 228.300781 Z M 362.261719 228.300781 " fill-opacity="1" fill-rule="nonzero"/><g clip-path="url(#8178da2d0b)"><path fill="#a10017" d="M 150.355469 219.914062 C 150.347656 220.0625 150.347656 220.207031 150.332031 220.355469 C 150.265625 221.871094 150.1875 223.40625 150.105469 224.957031 C 149.921875 228.542969 149.695312 232.1875 149.445312 235.835938 C 149.273438 238.304688 149.089844 240.773438 148.898438 243.230469 C 148.722656 245.457031 148.546875 247.675781 148.363281 249.875 C 148.214844 251.644531 148.0625 253.386719 147.914062 255.121094 C 147.746094 257.011719 147.578125 258.890625 147.40625 260.730469 C 147.136719 263.632812 146.863281 266.476562 146.585938 269.21875 C 146.246094 272.679688 145.894531 275.988281 145.5625 279.089844 C 145.152344 282.941406 144.753906 286.476562 144.402344 289.601562 C 144.210938 291.269531 144.027344 292.8125 143.859375 294.222656 C 143.234375 299.457031 140.667969 304.199219 136.726562 307.578125 L 136.714844 307.578125 C 135.808594 308.359375 134.832031 309.058594 133.78125 309.675781 C 128.703125 312.6875 122.800781 315.828125 116.714844 318.882812 C 112.289062 321.097656 107.769531 323.273438 103.394531 325.324219 C 103.011719 325.507812 102.625 325.691406 102.242188 325.867188 C 100.425781 326.710938 98.324219 326.683594 96.539062 325.777344 L 95.421875 325.21875 L 17.058594 285.675781 L 11.9375 283.089844 C 10.371094 282.300781 9.429688 280.640625 9.554688 278.878906 L 14.480469 209.585938 C 14.699219 206.449219 15.414062 203.40625 16.539062 200.5625 C 17.574219 197.921875 18.972656 195.445312 20.707031 193.203125 C 21.058594 192.734375 21.433594 192.277344 21.816406 191.835938 C 22.449219 191.109375 23.125 190.410156 23.828125 189.734375 C 25.910156 187.757812 28.304688 186.058594 30.9375 184.722656 C 32.3125 184.023438 33.695312 183.332031 35.074219 182.65625 C 38.765625 180.832031 42.441406 179.097656 45.960938 177.488281 C 47.292969 176.871094 48.613281 176.277344 49.894531 175.695312 C 50.644531 175.359375 51.386719 175.035156 52.113281 174.710938 C 57.015625 172.535156 61.410156 170.675781 64.886719 169.234375 C 70.003906 167.117188 75.789062 167.097656 80.910156 169.265625 C 81.152344 169.367188 81.394531 169.476562 81.632812 169.574219 C 87.613281 172.125 93.289062 174.734375 98.632812 177.34375 C 99.277344 177.664062 99.917969 177.96875 100.550781 178.277344 C 104.101562 180.039062 107.496094 181.796875 110.722656 183.523438 C 111.429688 183.898438 112.121094 184.273438 112.804688 184.648438 C 121.925781 189.585938 129.648438 194.253906 135.683594 198.136719 C 137.050781 199.019531 138.34375 199.863281 139.535156 200.648438 C 140.109375 201.03125 140.660156 201.398438 141.195312 201.757812 C 142.417969 202.574219 143.535156 203.515625 144.527344 204.558594 C 144.835938 204.875 145.128906 205.199219 145.410156 205.53125 C 145.46875 205.589844 145.519531 205.65625 145.570312 205.714844 C 146.652344 207 147.554688 208.410156 148.289062 209.902344 C 149.488281 212.378906 150.199219 215.085938 150.339844 217.894531 C 150.378906 218.554688 150.390625 219.230469 150.355469 219.914062 Z M 150.355469 219.914062 " fill-opacity="1" fill-rule="nonzero"/></g><path fill="#dd7b4a" d="M 97.214844 252.261719 L 97.117188 256.1875 L 96.984375 261.730469 L 96.949219 263.117188 L 96.597656 277.457031 L 96.441406 283.792969 L 96.316406 288.984375 L 96.265625 291.078125 L 95.933594 304.550781 L 95.421875 325.21875 L 17.058594 285.675781 L 18.066406 269.285156 L 18.867188 256.238281 L 18.941406 255.085938 L 19.082031 252.785156 L 19.707031 242.53125 L 20.566406 228.640625 L 20.582031 228.324219 L 20.800781 224.773438 L 21.515625 213.160156 C 21.683594 210.460938 24.535156 208.777344 26.984375 209.941406 L 89.445312 239.628906 C 94.304688 241.941406 97.347656 246.882812 97.214844 252.261719 Z M 280.171875 161.957031 C 298.167969 159.6875 316.078125 156.921875 334.035156 154.46875 C 336.167969 154.175781 335.976562 150.960938 333.785156 151.101562 C 315.46875 152.316406 297.277344 153.21875 279.027344 155.410156 C 270.074219 156.488281 261.128906 157.671875 252.207031 159.019531 C 248.132812 159.636719 244.054688 160.296875 239.984375 160.972656 C 235.585938 161.695312 232.039062 162.15625 228.664062 165.140625 C 228.054688 165.671875 228.3125 166.859375 229.023438 167.167969 C 232.640625 168.734375 235.585938 168.367188 239.445312 167.757812 C 244.046875 167.03125 248.648438 166.289062 253.257812 165.605469 C 262.21875 164.296875 271.191406 163.089844 280.171875 161.957031 Z M 269.355469 143.238281 C 273.691406 142.648438 278.019531 142.011719 282.355469 141.488281 C 286.324219 141.003906 289.882812 139.945312 293.742188 139.203125 C 298.011719 138.386719 302.363281 138.003906 306.679688 137.621094 C 307.914062 137.511719 307.824219 135.710938 306.589844 135.710938 C 298.167969 135.675781 289.683594 134.769531 281.335938 135.585938 C 277.242188 135.984375 273.160156 136.429688 269.089844 137.027344 C 265.804688 137.511719 261.855469 137.429688 260.144531 140.6875 C 259.851562 141.238281 259.984375 141.914062 260.429688 142.339844 C 262.886719 144.714844 266.273438 143.664062 269.355469 143.238281 Z M 346.347656 220.957031 C 345.773438 211.027344 344.824219 200.972656 342.957031 191.191406 C 341.214844 182.097656 333.777344 175.042969 324.398438 174.453125 C 317.984375 174.042969 311.257812 175.011719 304.863281 175.503906 C 298.042969 176.019531 291.234375 176.753906 284.429688 177.539062 C 276.917969 178.402344 269.339844 179.363281 261.921875 180.832031 C 258.3125 181.546875 254.691406 182.847656 251.050781 183.296875 C 247.363281 183.757812 243.980469 184.183594 240.335938 185.039062 C 239.203125 185.308594 239.628906 187.132812 240.753906 187.03125 C 245.339844 186.609375 250 185.449219 254.550781 185.199219 C 258.367188 184.980469 262.171875 184.890625 265.980469 184.523438 C 273.859375 183.765625 281.753906 183.113281 289.648438 182.496094 C 297.277344 181.90625 304.914062 181.421875 312.550781 180.996094 C 319.019531 180.636719 326.191406 179.222656 331.667969 183.574219 C 336.210938 187.183594 336.917969 192.570312 337.695312 197.945312 C 338.519531 203.613281 339.160156 209.300781 339.628906 215.011719 C 340.179688 221.746094 340.480469 228.5 340.496094 235.253906 C 340.503906 238.898438 340.320312 242.53125 340.261719 246.175781 C 340.230469 248.300781 340.304688 250.425781 340.320312 252.554688 C 340.335938 254.671875 340.847656 256.90625 340.820312 258.980469 C 340.796875 260.789062 343.621094 261.007812 343.972656 259.253906 C 344.605469 256.085938 345.679688 253.144531 346.113281 249.867188 C 346.539062 246.707031 346.664062 243.558594 346.730469 240.382812 C 346.867188 233.894531 346.722656 227.417969 346.347656 220.957031 Z M 325.816406 235.511719 C 325.507812 230.683594 325.257812 225.824219 324.78125 221.015625 C 323.832031 211.308594 316.9375 202.941406 307.066406 201.332031 C 299.4375 200.089844 290.691406 202.15625 283.097656 203.113281 C 273.558594 204.324219 264.089844 205.898438 254.675781 207.832031 C 253.199219 208.132812 253.273438 210.394531 254.867188 210.242188 C 269.816406 208.800781 284.78125 207.417969 299.769531 206.574219 C 309.773438 206.015625 318.167969 211.066406 318.988281 221.730469 C 319.910156 233.917969 320.488281 246.140625 321.296875 258.339844 C 321.511719 261.625 321.496094 265.082031 322.386719 268.277344 C 322.695312 269.375 323.878906 271.644531 323.90625 272.121094 C 324.003906 273.730469 326.515625 273.628906 326.414062 272.019531 C 326.441406 272.445312 326.464844 271.3125 326.523438 271.109375 C 326.523438 271.121094 327.066406 269.726562 327.242188 268.976562 C 327.925781 266.035156 327.539062 262.90625 327.347656 259.929688 C 326.839844 251.792969 326.332031 243.648438 325.816406 235.511719 Z M 277.050781 224.847656 C 276.066406 225.082031 276.167969 226.464844 277.21875 226.433594 C 290.847656 226.066406 289.757812 243.582031 289.675781 252.726562 C 289.625 258.207031 289.632812 263.683594 289.480469 269.152344 C 289.339844 274.289062 288.617188 279.390625 291.382812 283.941406 C 291.542969 284.199219 291.949219 284.207031 292.140625 283.984375 C 296.308594 278.921875 295.542969 271.550781 295.667969 265.332031 C 295.808594 258.15625 295.785156 250.910156 294.933594 243.773438 C 293.875 234.761719 288.230469 222.214844 277.050781 224.847656 Z M 277.050781 224.847656 " fill-opacity="1" fill-rule="nonzero"/><path fill="#a10017" d="M 96.992188 261.730469 L 96.609375 277.457031 C 92.796875 275.914062 89.347656 273.429688 85.726562 271.394531 C 82.652344 269.667969 79.417969 268.25 76.183594 266.851562 C 68.394531 263.484375 60.59375 260.164062 52.789062 256.855469 C 41.726562 252.175781 30.644531 247.515625 19.714844 242.53125 L 20.589844 228.324219 C 25.761719 230.96875 31.472656 232.5625 36.796875 234.921875 C 40.410156 236.519531 43.851562 238.480469 47.363281 240.289062 C 63.367188 248.542969 80.925781 253.746094 96.992188 261.730469 Z M 34.832031 261.53125 C 29.613281 259.214844 24.027344 257.636719 18.949219 255.085938 L 18.074219 269.285156 C 28.894531 274.21875 39.875 278.832031 50.820312 283.464844 C 58.632812 286.765625 66.4375 290.085938 74.214844 293.460938 C 77.449219 294.863281 80.691406 296.273438 83.761719 297.996094 C 87.789062 300.257812 91.605469 303.082031 95.941406 304.550781 L 96.324219 288.984375 C 79.910156 280.632812 61.84375 275.371094 45.402344 266.902344 C 41.882812 265.089844 38.449219 263.132812 34.832031 261.53125 Z M 34.832031 261.53125 " fill-opacity="1" fill-rule="nonzero"/><g clip-path="url(#dddd6c4cd4)"><path fill="#a10017" d="M 363.796875 228.402344 L 363.699219 243.550781 C 363.640625 248.96875 361.511719 254.320312 357.84375 258.304688 C 356.929688 259.296875 355.9375 260.222656 354.851562 261.03125 L 351.765625 263.289062 L 348.648438 265.484375 L 345.507812 267.625 C 341.296875 270.453125 337.035156 273.179688 332.734375 275.847656 C 324.128906 281.183594 315.410156 286.285156 306.597656 291.246094 C 305.472656 291.863281 304.445312 292.476562 303.214844 293.105469 C 302.011719 293.703125 300.753906 294.1875 299.460938 294.554688 C 296.878906 295.289062 294.160156 295.546875 291.484375 295.304688 C 290.15625 295.1875 288.796875 294.929688 287.546875 294.585938 L 283.871094 293.585938 C 281.4375 292.878906 279.003906 292.160156 276.585938 291.394531 C 266.921875 288.328125 257.417969 284.839844 247.996094 281.15625 C 243.289062 279.3125 238.601562 277.421875 233.933594 275.480469 L 226.945312 272.535156 C 225.78125 272.035156 224.636719 271.570312 223.421875 270.96875 C 222.253906 270.34375 221.101562 269.667969 220.0625 268.84375 C 217.933594 267.25 216.160156 265.226562 214.742188 262.992188 C 213.375 260.722656 212.359375 258.230469 211.890625 255.621094 C 211.617188 254.320312 211.546875 252.984375 211.464844 251.753906 L 211.207031 247.96875 L 210.707031 240.40625 C 209.554688 220.230469 208.890625 200.039062 208.605469 179.839844 C 208.582031 178.605469 208.582031 177.269531 208.722656 175.976562 C 208.855469 174.6875 209.132812 173.402344 209.507812 172.160156 C 210.238281 169.667969 211.457031 167.316406 213.042969 165.257812 C 213.824219 164.222656 214.726562 163.273438 215.683594 162.40625 C 216.652344 161.546875 217.632812 160.78125 218.609375 159.964844 C 220.585938 158.378906 222.59375 156.835938 224.636719 155.34375 C 232.808594 149.375 241.34375 143.957031 250.007812 138.789062 C 254.34375 136.203125 258.710938 133.683594 263.121094 131.226562 C 265.320312 129.992188 267.53125 128.78125 269.75 127.574219 C 271.964844 126.332031 274.417969 125.429688 276.945312 125.046875 C 279.46875 124.648438 282.0625 124.707031 284.5625 125.230469 C 285.824219 125.480469 287.023438 125.90625 288.222656 126.273438 L 291.832031 127.414062 C 296.628906 128.992188 301.386719 130.632812 306.113281 132.382812 C 315.558594 135.894531 324.882812 139.761719 334 144.023438 C 338.5625 146.148438 343.089844 148.367188 347.550781 150.691406 C 348.65625 151.285156 349.785156 151.84375 350.867188 152.492188 C 351.941406 153.152344 352.941406 153.917969 353.886719 154.761719 C 355.746094 156.453125 357.320312 158.46875 358.453125 160.714844 C 359.753906 163.273438 360.171875 165.414062 360.320312 166.824219 C 360.414062 168.25 360.371094 168.957031 360.269531 168.96875 C 360.164062 168.976562 359.988281 168.28125 359.730469 166.933594 C 359.414062 165.589844 358.914062 163.574219 357.652344 161.136719 C 356.5625 159.003906 355.050781 157.085938 353.269531 155.476562 C 352.367188 154.6875 351.410156 153.960938 350.382812 153.335938 C 349.375 152.726562 348.234375 152.167969 347.125 151.585938 C 342.664062 149.292969 338.152344 147.105469 333.59375 145.015625 C 324.480469 140.820312 315.175781 137.019531 305.746094 133.578125 C 301.027344 131.859375 296.269531 130.25 291.492188 128.714844 L 286.089844 127.039062 C 285.503906 126.875 284.9375 126.714844 284.355469 126.597656 C 282.019531 126.113281 279.601562 126.066406 277.242188 126.449219 C 274.875 126.832031 272.632812 127.648438 270.523438 128.839844 C 268.324219 130.058594 266.121094 131.277344 263.929688 132.519531 C 259.554688 135.003906 255.199219 137.535156 250.898438 140.136719 C 242.285156 145.347656 233.816406 150.800781 225.746094 156.769531 C 223.730469 158.261719 221.753906 159.796875 219.8125 161.371094 C 218.867188 162.171875 217.851562 162.972656 216.96875 163.773438 C 216.09375 164.566406 215.277344 165.433594 214.566406 166.382812 C 213.132812 168.265625 212.039062 170.410156 211.375 172.683594 C 211.039062 173.820312 210.789062 174.984375 210.683594 176.160156 C 210.558594 177.355469 210.558594 178.480469 210.597656 179.789062 C 211 199.957031 211.789062 220.140625 213.050781 240.28125 L 213.589844 247.824219 L 213.867188 251.601562 C 213.917969 252.21875 213.941406 252.894531 214.015625 253.453125 L 214.117188 254.328125 L 214.273438 255.195312 C 214.699219 257.511719 215.632812 259.714844 216.859375 261.714844 C 218.136719 263.691406 219.71875 265.476562 221.621094 266.867188 C 222.546875 267.59375 223.570312 268.175781 224.613281 268.71875 C 225.636719 269.21875 226.847656 269.703125 227.996094 270.195312 L 234.984375 273.09375 C 239.652344 275.003906 244.339844 276.871094 249.039062 278.6875 C 258.445312 282.316406 267.921875 285.742188 277.519531 288.742188 C 279.917969 289.492188 282.328125 290.195312 284.738281 290.886719 L 288.363281 291.863281 C 289.53125 292.167969 290.65625 292.371094 291.832031 292.460938 C 294.160156 292.652344 296.527344 292.402344 298.769531 291.746094 C 299.894531 291.410156 300.988281 290.984375 302.03125 290.453125 L 302.804688 290.042969 L 303.628906 289.578125 L 305.273438 288.644531 C 314.035156 283.667969 322.714844 278.554688 331.25 273.226562 C 335.519531 270.5625 339.746094 267.851562 343.90625 265.042969 C 345.980469 263.632812 348.039062 262.207031 350.074219 260.746094 C 351.074219 260.015625 352.117188 259.273438 353.078125 258.539062 C 354.011719 257.839844 354.859375 257.03125 355.644531 256.171875 C 358.789062 252.710938 360.605469 248.101562 360.621094 243.414062 L 360.714844 228.324219 C 360.6875 223.296875 360.65625 218.269531 360.628906 213.246094 C 360.628906 210.734375 360.589844 208.21875 360.519531 205.707031 L 360.363281 198.171875 C 360.320312 195.738281 360.269531 193.460938 360.238281 191.328125 C 360.179688 189.199219 360.128906 187.214844 360.078125 185.398438 C 360.003906 181.746094 359.996094 178.703125 360.03125 176.269531 C 360.105469 171.394531 360.386719 168.949219 360.753906 168.933594 C 361.148438 168.917969 361.621094 171.335938 362.121094 176.195312 C 362.371094 178.621094 362.621094 181.664062 362.863281 185.316406 C 362.972656 187.140625 363.089844 189.117188 363.222656 191.25 C 363.332031 193.386719 363.363281 195.671875 363.421875 198.105469 L 363.582031 205.675781 C 363.640625 208.199219 363.6875 210.71875 363.6875 213.246094 Z M 91.1875 322.472656 C 67.746094 308.867188 43.027344 297.195312 18.382812 286.035156 C 16.613281 285.257812 16.640625 285.207031 18.347656 286.09375 C 30.4375 292.1875 42.324219 298.757812 54.3125 305.152344 C 66.292969 311.554688 78.40625 317.699219 90.886719 323.074219 C 92.390625 323.699219 93.515625 324.167969 94.296875 324.492188 C 95.058594 324.808594 95.421875 324.984375 95.421875 324.984375 C 95.421875 324.984375 95.058594 324.792969 94.355469 324.375 C 93.632812 323.941406 92.582031 323.316406 91.1875 322.472656 Z M 91.1875 322.472656 " fill-opacity="1" fill-rule="nonzero"/></g><path fill="#ddd7f4" d="M 123.3125 134.820312 C 119.460938 126.472656 120.144531 116.195312 125.0625 108.425781 C 129.980469 100.652344 138.976562 95.644531 148.171875 95.550781 L 181.34375 91.640625 C 189.890625 93.492188 198.328125 96.617188 205.15625 102.078125 C 211.980469 107.539062 217.066406 115.558594 217.675781 124.28125 C 218.277344 133 213.800781 142.222656 205.914062 146 C 199.851562 148.898438 192.714844 148.433594 186.347656 150.582031 C 180.195312 152.667969 174.898438 157.152344 168.480469 158.1875 C 162.34375 159.179688 156.109375 156.804688 150.898438 153.417969 C 146.335938 150.457031 142.195312 146.65625 137.042969 144.949219 C 134.90625 144.238281 132.640625 143.90625 130.613281 142.945312 C 127.246094 141.363281 124.871094 138.195312 123.3125 134.820312 Z M 277.734375 236.570312 C 277.726562 235.894531 277.675781 235.21875 277.601562 234.5625 C 276.886719 228.109375 273.167969 222.332031 267.507812 218.996094 C 255.574219 211.96875 233.574219 200.164062 205.378906 190.175781 C 200.144531 188.324219 194.375 188.675781 189.382812 191.101562 C 176.351562 197.445312 150.023438 210.902344 133.957031 223.433594 C 129.089844 227.226562 126.179688 232.984375 125.980469 239.148438 C 125.96875 239.457031 125.960938 239.773438 125.953125 240.097656 C 125.777344 245.65625 125.578125 253.269531 125.453125 262.148438 C 125.371094 267.808594 125.3125 273.988281 125.3125 280.488281 C 125.3125 287.25 125.363281 294.355469 125.496094 301.574219 C 125.570312 305.632812 125.671875 309.71875 125.804688 313.8125 C 126.054688 321.53125 130.589844 328.460938 137.550781 331.8125 C 152.421875 338.972656 179.144531 351.277344 199.578125 357.554688 C 204.679688 359.125 210.179688 358.625 214.941406 356.230469 C 226.863281 350.238281 250.898438 337.78125 266.574219 327.167969 C 271.949219 323.535156 275.328125 317.613281 275.703125 311.136719 C 275.933594 307.050781 276.21875 301.855469 276.492188 295.929688 C 276.761719 290.335938 277.019531 284.082031 277.234375 277.496094 C 277.417969 271.828125 277.578125 265.910156 277.675781 259.9375 C 277.820312 252.09375 277.851562 244.15625 277.734375 236.570312 Z M 94.765625 283.082031 C 95.316406 283.324219 95.875 283.558594 96.441406 283.792969 L 96.316406 288.984375 L 96.265625 291.078125 C 94.738281 290.378906 93.246094 289.535156 91.765625 288.875 C 88.078125 287.234375 84.367188 285.652344 80.652344 284.089844 C 73.199219 280.980469 65.6875 278.015625 58.199219 274.980469 C 50.546875 271.878906 42.757812 268.917969 35.289062 265.390625 C 29.546875 262.675781 23.917969 259.996094 18.867188 256.238281 L 18.941406 255.085938 L 19.082031 252.785156 C 25.976562 254.421875 32.480469 257.253906 39.015625 259.980469 C 46.402344 263.058594 53.773438 266.160156 61.191406 269.144531 C 68.9375 272.253906 76.691406 275.355469 84.378906 278.589844 C 87.855469 280.054688 91.320312 281.539062 94.765625 283.082031 Z M 94.980469 255.34375 C 91.445312 253.804688 87.914062 252.261719 84.386719 250.726562 C 76.839844 247.441406 69.304688 244.15625 61.75 240.898438 C 54.230469 237.644531 46.710938 234.402344 39.191406 231.160156 C 33.554688 228.726562 27.109375 225.214844 20.800781 224.773438 L 20.582031 228.324219 L 20.566406 228.640625 C 25.445312 232.660156 32.328125 234.886719 37.90625 237.320312 C 45.453125 240.621094 52.988281 243.914062 60.535156 247.21875 C 68.085938 250.519531 75.648438 253.777344 83.210938 257.0625 C 86.726562 258.582031 90.238281 260.105469 93.757812 261.632812 C 94.847656 262.105469 95.898438 262.648438 96.949219 263.117188 L 96.984375 261.730469 L 97.117188 256.1875 C 96.375 255.902344 95.65625 255.636719 94.980469 255.34375 Z M 94.980469 255.34375 " fill-opacity="1" fill-rule="nonzero"/><path fill="#dd7b4a" d="M 277.675781 259.9375 C 261.554688 268.644531 245.421875 277.347656 229.296875 286.050781 C 220.425781 290.835938 210.839844 295.769531 200.820312 294.644531 C 190.632812 293.496094 182.269531 286.324219 172.816406 282.339844 C 168.054688 280.332031 162.996094 279.132812 158.125 277.386719 C 153.441406 275.703125 148.9375 273.527344 144.453125 271.351562 C 138.125 268.285156 131.789062 265.214844 125.453125 262.148438 C 125.578125 253.269531 125.777344 245.65625 125.953125 240.097656 C 147.203125 250.917969 169.140625 260.390625 191.589844 268.425781 C 195.308594 269.761719 199.101562 271.0625 203.046875 271.253906 C 213.601562 271.753906 222.636719 264.425781 231.898438 259.339844 C 242.152344 253.695312 253.707031 250.519531 263.511719 244.125 C 268.25 241.039062 272.660156 237.164062 277.601562 234.5625 C 277.675781 235.21875 277.726562 235.894531 277.734375 236.570312 C 277.851562 244.15625 277.820312 252.09375 277.675781 259.9375 Z M 217.75 312.046875 C 206.871094 315.144531 195.410156 311.960938 184.6875 308.21875 C 164.226562 301.089844 144.328125 291.929688 125.3125 280.847656 C 125.3125 288.433594 125.363281 296.398438 125.496094 304.5 C 141.570312 310.101562 157.449219 316.421875 173.082031 323.425781 C 187.4375 329.871094 202.945312 337.03125 217.875 332.527344 C 223.753906 330.761719 229.089844 327.277344 234.34375 323.832031 C 239.167969 320.664062 243.996094 317.496094 248.824219 314.320312 C 257.800781 308.425781 266.871094 302.484375 276.492188 298.164062 C 276.761719 291.886719 277.019531 284.875 277.234375 277.488281 C 262.480469 286.492188 247.738281 295.496094 232.992188 304.5 C 228.097656 307.492188 223.144531 310.503906 217.75 312.046875 Z M 217.75 312.046875 " fill-opacity="1" fill-rule="nonzero"/><path fill="#a10017" d="M 278.484375 276.414062 C 278.445312 280.074219 278.292969 284.332031 278.101562 289.210938 L 277.785156 296.773438 L 277.394531 304.332031 C 277.253906 306.867188 277.160156 309.335938 276.96875 311.9375 C 276.734375 314.613281 275.984375 317.230469 274.816406 319.648438 C 273.632812 322.058594 272.015625 324.25 270.058594 326.074219 C 269.097656 327 267.980469 327.820312 266.914062 328.535156 C 265.855469 329.234375 264.804688 329.945312 263.730469 330.628906 C 259.460938 333.371094 255.125 335.980469 250.742188 338.515625 C 241.980469 343.566406 233.066406 348.34375 224.078125 352.980469 L 217.328125 356.421875 L 215.632812 357.273438 C 215.050781 357.554688 214.433594 357.847656 213.816406 358.089844 C 212.574219 358.589844 211.289062 358.972656 209.980469 359.230469 C 207.363281 359.765625 204.644531 359.816406 202.011719 359.367188 C 200.710938 359.15625 199.359375 358.773438 198.191406 358.375 C 196.984375 357.980469 195.765625 357.605469 194.574219 357.191406 C 184.960938 353.945312 175.582031 350.128906 166.289062 346.136719 C 157 342.117188 147.820312 337.890625 138.71875 333.496094 L 137.007812 332.664062 C 136.425781 332.34375 135.824219 332.070312 135.273438 331.703125 C 134.132812 331.035156 133.089844 330.210938 132.089844 329.351562 C 130.140625 327.578125 128.464844 325.46875 127.269531 323.109375 C 126.046875 320.765625 125.296875 318.1875 124.996094 315.570312 C 124.929688 314.921875 124.894531 314.246094 124.863281 313.605469 L 124.820312 311.710938 L 124.738281 307.917969 C 124.6875 305.390625 124.601562 302.867188 124.59375 300.339844 L 124.554688 292.761719 C 124.542969 287.710938 124.453125 282.65625 124.519531 277.605469 L 124.695312 262.457031 L 125.085938 247.316406 L 125.285156 239.746094 C 125.3125 237.179688 125.8125 234.554688 126.746094 232.136719 C 127.695312 229.710938 129.0625 227.457031 130.8125 225.53125 C 131.6875 224.574219 132.648438 223.691406 133.671875 222.898438 L 136.714844 220.621094 C 144.945312 214.703125 153.648438 209.535156 162.460938 204.605469 C 171.296875 199.714844 180.277344 195.101562 189.371094 190.71875 C 194.007812 188.515625 199.453125 188.074219 204.363281 189.535156 C 209.164062 191.183594 213.859375 192.984375 218.542969 194.871094 C 227.90625 198.621094 237.101562 202.789062 246.121094 207.285156 C 250.632812 209.542969 255.09375 211.886719 259.503906 214.320312 C 261.703125 215.546875 263.894531 216.789062 266.070312 218.0625 C 267.15625 218.703125 268.265625 219.3125 269.273438 220.082031 C 270.28125 220.832031 271.25 221.65625 272.109375 222.582031 C 275.601562 226.242188 277.636719 231.21875 277.753906 236.261719 C 277.769531 241.296875 277.710938 246.324219 277.695312 251.359375 C 277.636719 262.808594 276.910156 262.808594 276.910156 251.351562 C 276.902344 246.34375 276.902344 241.324219 276.894531 236.304688 C 276.75 231.476562 274.800781 226.726562 271.449219 223.242188 C 270.625 222.355469 269.707031 221.574219 268.738281 220.855469 C 267.78125 220.128906 266.714844 219.554688 265.621094 218.914062 C 263.453125 217.65625 261.261719 216.429688 259.0625 215.21875 C 254.660156 212.8125 250.199219 210.492188 245.695312 208.265625 C 236.683594 203.832031 227.496094 199.730469 218.144531 196.035156 C 215.808594 195.101562 213.457031 194.210938 211.105469 193.328125 C 209.929688 192.878906 208.746094 192.46875 207.5625 192.035156 C 206.386719 191.625 205.171875 191.144531 204.054688 190.808594 C 199.453125 189.460938 194.359375 189.875 190.03125 191.953125 C 181.003906 196.363281 172.046875 201.023438 163.269531 205.949219 C 154.507812 210.910156 145.871094 216.105469 137.757812 222.007812 L 134.765625 224.273438 C 133.816406 225.015625 132.949219 225.824219 132.148438 226.714844 C 130.554688 228.492188 129.304688 230.570312 128.445312 232.792969 C 127.605469 235.035156 127.164062 237.371094 127.144531 239.824219 L 126.988281 247.390625 L 126.671875 262.53125 L 126.570312 277.671875 C 126.527344 282.714844 126.644531 287.769531 126.671875 292.8125 L 126.746094 300.382812 C 126.769531 302.90625 126.871094 305.425781 126.929688 307.953125 L 127.027344 311.738281 L 127.078125 313.628906 C 127.121094 314.238281 127.136719 314.820312 127.210938 315.414062 C 127.496094 317.765625 128.195312 320.074219 129.3125 322.167969 C 130.398438 324.273438 131.921875 326.144531 133.683594 327.726562 C 134.589844 328.484375 135.523438 329.226562 136.558594 329.8125 C 137.050781 330.136719 137.601562 330.378906 138.117188 330.660156 L 139.824219 331.476562 C 148.929688 335.820312 158.109375 340.007812 167.371094 343.976562 C 176.640625 347.917969 185.996094 351.679688 195.515625 354.863281 C 196.699219 355.273438 197.902344 355.628906 199.09375 356.015625 L 199.984375 356.296875 L 200.835938 356.539062 C 201.410156 356.679688 201.984375 356.804688 202.570312 356.898438 C 204.894531 357.273438 207.296875 357.207031 209.605469 356.714844 C 210.765625 356.472656 211.890625 356.121094 212.984375 355.671875 C 213.542969 355.445312 214.050781 355.207031 214.609375 354.921875 L 216.292969 354.070312 L 223.019531 350.628906 C 231.957031 345.992188 240.828125 341.214844 249.523438 336.1875 C 253.867188 333.671875 258.167969 331.078125 262.378906 328.359375 L 265.511719 326.292969 C 266.523438 325.609375 267.457031 324.925781 268.304688 324.09375 C 270.023438 322.472656 271.441406 320.546875 272.464844 318.429688 C 273.484375 316.3125 274.140625 314.003906 274.34375 311.660156 C 274.507812 309.234375 274.617188 306.660156 274.757812 304.175781 L 275.152344 296.648438 L 275.46875 289.117188 C 275.660156 284.257812 275.902344 279.996094 276.085938 276.355469 C 276.25 272.710938 276.433594 269.667969 276.617188 267.242188 C 276.992188 262.382812 277.386719 259.957031 277.710938 259.964844 C 278.042969 259.972656 278.3125 262.414062 278.4375 267.292969 C 278.476562 269.710938 278.503906 272.761719 278.484375 276.414062 Z M 278.484375 276.414062 " fill-opacity="1" fill-rule="nonzero"/><path fill="#a10017" d="M 246.0625 199.273438 C 246.0625 199.320312 246.0625 199.371094 246.0625 199.429688 C 246.0625 199.4375 246.0625 199.4375 246.0625 199.445312 C 246.0625 199.472656 246.0625 199.503906 246.0625 199.53125 C 246.0625 199.539062 246.0625 199.554688 246.0625 199.5625 C 246.039062 203.039062 244.136719 206.050781 241.3125 207.660156 C 242.945312 210.453125 243.09375 214.003906 241.394531 217.019531 C 239.71875 220.015625 236.644531 221.722656 233.441406 221.789062 C 233.574219 224.957031 232.089844 228.117188 229.257812 230 C 226.445312 231.867188 222.996094 232.019531 220.144531 230.703125 C 218.886719 233.570312 216.226562 235.753906 212.890625 236.238281 C 212.40625 236.3125 211.933594 236.335938 211.464844 236.335938 C 208.6875 236.320312 206.128906 235.070312 204.402344 233.042969 C 202.070312 235.121094 198.75 235.988281 195.535156 235.054688 C 192.296875 234.113281 189.957031 231.578125 189.113281 228.550781 C 186.085938 229.453125 182.6875 228.800781 180.160156 226.550781 C 180.160156 226.550781 180.160156 226.550781 180.160156 226.542969 C 177.609375 224.257812 176.609375 220.898438 177.21875 217.761719 C 174.050781 217.203125 171.257812 215.027344 170.054688 211.792969 C 168.847656 208.542969 169.554688 205.039062 171.613281 202.539062 C 169.113281 200.53125 167.703125 197.304688 168.1875 193.894531 C 168.648438 190.644531 170.730469 188.007812 173.5 186.714844 C 172.15625 184.023438 172.125 180.730469 173.707031 177.914062 C 175.292969 175.101562 178.101562 173.417969 181.09375 173.160156 C 180.753906 170.140625 181.886719 167.015625 184.378906 164.914062 C 186.972656 162.730469 190.40625 162.195312 193.398438 163.207031 C 194.390625 160.097656 196.976562 157.59375 200.402344 156.871094 C 203.929688 156.128906 207.414062 157.460938 209.566406 160.054688 C 212.125 157.910156 215.75 157.195312 219.078125 158.519531 C 222.253906 159.789062 224.355469 162.589844 224.863281 165.730469 C 227.914062 165.183594 231.164062 166.140625 233.425781 168.574219 C 235.625 170.933594 236.367188 174.136719 235.691406 177.0625 C 238.628906 177.652344 241.226562 179.628906 242.488281 182.597656 C 243.738281 185.550781 243.371094 188.792969 241.761719 191.308594 C 244.371094 192.992188 246.089844 195.9375 246.0625 199.273438 Z M 246.0625 199.273438 " fill-opacity="1" fill-rule="nonzero"/><path fill="#a10017" d="M 167.8125 159.5625 C 163.070312 160.105469 158.390625 158.835938 154.300781 156.84375 C 152.238281 155.84375 150.28125 154.636719 148.445312 153.351562 C 146.613281 152.078125 144.851562 150.75 143.0625 149.550781 C 141.277344 148.347656 139.433594 147.289062 137.515625 146.53125 C 135.632812 145.773438 133.464844 145.457031 131.207031 144.640625 C 130.082031 144.230469 128.953125 143.640625 127.972656 142.929688 C 126.988281 142.214844 126.105469 141.378906 125.320312 140.480469 C 123.769531 138.660156 122.585938 136.621094 121.71875 134.476562 C 119.925781 130.199219 119.242188 125.515625 119.601562 120.921875 C 119.96875 116.335938 121.375 111.808594 123.835938 107.882812 C 126.296875 103.957031 129.730469 100.703125 133.683594 98.371094 C 138.074219 95.792969 141.933594 95.101562 144.417969 94.96875 C 145.679688 94.925781 146.621094 94.984375 147.230469 95.136719 C 147.847656 95.261719 148.164062 95.417969 148.171875 95.578125 C 148.179688 95.742188 147.886719 95.917969 147.296875 96.101562 C 146.695312 96.269531 145.820312 96.492188 144.6875 96.769531 C 142.425781 97.378906 139.027344 98.3125 135.039062 100.664062 C 131.429688 102.796875 128.304688 105.773438 126.085938 109.316406 C 123.871094 112.859375 122.570312 116.984375 122.234375 121.179688 C 121.902344 125.371094 122.527344 129.648438 124.144531 133.527344 C 125.71875 137.378906 128.355469 140.945312 132.140625 142.28125 C 134.039062 142.988281 136.28125 143.339844 138.484375 144.222656 C 140.652344 145.089844 142.636719 146.265625 144.488281 147.53125 C 148.203125 150.074219 151.53125 152.875 155.390625 154.734375 C 159.203125 156.613281 163.4375 157.761719 167.597656 157.304688 C 171.765625 156.878906 175.617188 154.71875 179.527344 152.691406 C 181.492188 151.675781 183.511719 150.667969 185.664062 149.917969 C 187.8125 149.148438 190.046875 148.726562 192.242188 148.367188 C 196.617188 147.664062 201.027344 147.316406 204.953125 145.632812 C 208.863281 143.972656 212.089844 140.863281 214.183594 137.121094 C 216.285156 133.375 217.34375 129.03125 217.160156 124.730469 C 216.976562 120.414062 215.625 116.167969 213.492188 112.382812 C 211.355469 108.589844 208.464844 105.230469 205.085938 102.464844 C 201.710938 99.6875 197.875 97.484375 193.847656 95.75 C 189.824219 94.027344 185.613281 92.75 181.328125 91.800781 C 171.671875 92.882812 162.035156 93.960938 152.40625 95.042969 C 146.753906 95.683594 146.703125 94.953125 152.347656 94.257812 C 161.9375 93.085938 171.539062 91.917969 181.226562 90.734375 L 181.378906 90.714844 L 181.527344 90.75 C 185.871094 91.675781 190.171875 92.910156 194.300781 94.632812 C 198.425781 96.351562 202.386719 98.570312 205.914062 101.40625 C 209.441406 104.238281 212.492188 107.691406 214.765625 111.632812 C 217.042969 115.570312 218.527344 120.027344 218.777344 124.640625 C 219.019531 129.257812 217.941406 133.917969 215.726562 137.976562 C 213.523438 142.039062 210.023438 145.515625 205.703125 147.390625 C 201.386719 149.273438 196.816406 149.648438 192.550781 150.390625 C 190.40625 150.765625 188.304688 151.191406 186.335938 151.917969 C 184.355469 152.625 182.4375 153.601562 180.503906 154.628906 C 178.558594 155.652344 176.601562 156.738281 174.507812 157.652344 C 172.421875 158.5625 170.171875 159.304688 167.8125 159.5625 Z M 246.136719 194.761719 C 245.453125 193.300781 244.414062 192.027344 243.152344 191.027344 C 244.546875 188.316406 244.703125 185 243.488281 182.1875 C 242.320312 179.378906 239.835938 177.171875 236.917969 176.285156 C 237.308594 173.21875 236.285156 169.984375 234.117188 167.765625 C 231.992188 165.480469 228.773438 164.316406 225.671875 164.589844 C 225.289062 163.148438 224.605469 161.789062 223.652344 160.628906 C 222.496094 159.210938 220.945312 158.121094 219.234375 157.488281 C 217.527344 156.84375 215.632812 156.667969 213.832031 156.996094 C 212.339844 157.253906 210.921875 157.863281 209.679688 158.730469 C 208.589844 157.644531 207.28125 156.792969 205.828125 156.277344 C 204.085938 155.652344 202.167969 155.519531 200.359375 155.886719 C 198.550781 156.246094 196.835938 157.09375 195.46875 158.328125 C 194.316406 159.363281 193.425781 160.65625 192.832031 162.082031 C 189.765625 161.339844 186.363281 162.082031 183.945312 164.105469 C 181.46875 166.089844 180.070312 169.273438 180.183594 172.417969 C 177.175781 172.933594 174.441406 174.84375 172.980469 177.519531 C 171.464844 180.203125 171.332031 183.554688 172.507812 186.367188 C 169.730469 187.933594 167.761719 190.851562 167.4375 194.011719 C 167.039062 197.203125 168.339844 200.488281 170.699219 202.613281 C 169.332031 204.523438 168.65625 206.898438 168.847656 209.21875 C 169.03125 211.125 169.640625 211.933594 169.738281 211.886719 C 169.914062 211.820312 169.613281 210.941406 169.472656 209.175781 C 169.304688 206.792969 170.105469 204.367188 171.640625 202.546875 L 171.664062 202.523438 L 171.640625 202.496094 C 169.164062 200.515625 167.839844 197.230469 168.273438 194.109375 C 168.636719 190.984375 170.730469 188.160156 173.582031 186.875 L 173.757812 186.800781 L 173.675781 186.625 C 172.339844 183.941406 172.441406 180.621094 173.941406 178.054688 C 175.398438 175.460938 178.183594 173.710938 181.128906 173.511719 L 181.496094 173.484375 L 181.453125 173.117188 C 181.117188 170.101562 182.4375 167 184.804688 165.15625 C 187.136719 163.265625 190.441406 162.722656 193.234375 163.714844 L 193.75 163.898438 L 193.917969 163.363281 C 194.882812 160.347656 197.574219 157.996094 200.667969 157.453125 C 203.746094 156.84375 207.070312 158.085938 209.007812 160.503906 L 209.457031 161.070312 L 210.023438 160.597656 C 212.375 158.636719 215.765625 158.078125 218.578125 159.195312 C 221.417969 160.246094 223.546875 162.898438 223.980469 165.867188 L 224.113281 166.757812 L 225.011719 166.597656 C 227.78125 166.097656 230.75 167.074219 232.640625 169.132812 C 234.582031 171.152344 235.367188 174.144531 234.71875 176.835938 L 234.476562 177.835938 L 235.492188 178.039062 C 238.167969 178.570312 240.496094 180.480469 241.527344 182.988281 C 242.605469 185.480469 242.335938 188.46875 240.863281 190.734375 L 240.285156 191.617188 L 241.179688 192.203125 C 242.480469 193.050781 243.527344 194.261719 244.195312 195.660156 C 244.863281 197.078125 245.078125 198.605469 244.945312 200.214844 C 244.6875 202.90625 243.472656 204.683594 242.613281 205.765625 C 241.726562 206.867188 241.152344 207.390625 241.292969 207.640625 C 241.328125 207.699219 241.421875 207.734375 241.554688 207.734375 C 241.601562 208.007812 241.777344 208.492188 242.046875 209.21875 C 243.046875 212.019531 242.59375 215.261719 240.878906 217.65625 C 239.210938 220.089844 236.324219 221.574219 233.425781 221.582031 L 233.226562 221.582031 L 233.234375 221.78125 C 233.351562 224.925781 231.714844 228.027344 229.097656 229.683594 C 226.511719 231.402344 223.070312 231.601562 220.328125 230.261719 L 219.894531 230.050781 L 219.695312 230.5 C 218.460938 233.253906 215.765625 235.253906 212.816406 235.613281 C 209.875 236.019531 206.804688 234.804688 204.960938 232.535156 L 204.488281 231.953125 L 203.902344 232.46875 C 203.753906 232.601562 203.59375 232.710938 203.4375 232.828125 C 203.402344 232.800781 203.371094 232.777344 203.335938 232.753906 C 203.628906 232.445312 203.902344 232.128906 204.152344 231.808594 C 207.339844 227.660156 206.847656 221.949219 203.070312 219.046875 C 199.945312 216.652344 195.542969 216.945312 192.316406 219.464844 C 192.257812 219.28125 192.207031 219.097656 192.148438 218.929688 C 190.347656 214.019531 185.269531 211.359375 180.800781 212.992188 C 179 213.652344 177.574219 214.917969 176.632812 216.503906 C 175.800781 216.269531 175 215.910156 174.273438 215.429688 C 172.816406 214.460938 171.949219 213.425781 171.332031 212.742188 C 170.722656 212.042969 170.332031 211.667969 170.074219 211.761719 C 169.839844 211.84375 169.722656 212.425781 170.0625 213.453125 C 170.40625 214.460938 171.265625 215.96875 173.105469 217.195312 C 173.925781 217.738281 174.824219 218.15625 175.757812 218.445312 C 175.148438 220.421875 175.167969 222.664062 175.957031 224.839844 C 176.023438 225.015625 176.101562 225.183594 176.175781 225.359375 C 172.082031 225.515625 168.53125 228.125 167.6875 231.976562 C 166.671875 236.628906 169.980469 241.304688 175.089844 242.433594 C 175.484375 242.515625 175.898438 242.582031 176.316406 242.625 C 175.449219 246.449219 176.910156 250.394531 180.210938 252.277344 C 184.34375 254.636719 189.796875 252.871094 192.390625 248.324219 C 192.675781 247.835938 192.914062 247.300781 193.140625 246.734375 C 193.675781 247.015625 194.207031 247.277344 194.742188 247.46875 C 199.652344 249.269531 204.960938 247.101562 206.597656 242.632812 C 207.464844 240.273438 207.121094 237.753906 205.894531 235.628906 C 208.003906 236.972656 210.582031 237.570312 213.058594 237.179688 C 216.234375 236.730469 219.085938 234.652344 220.578125 231.84375 C 223.605469 232.917969 227.128906 232.503906 229.765625 230.675781 C 232.472656 228.882812 234.140625 225.714844 234.207031 222.5 C 237.152344 222.191406 239.925781 220.5625 241.546875 218.105469 C 243.355469 215.46875 243.753906 211.96875 242.636719 209.007812 C 242.378906 208.34375 242.105469 207.917969 241.902344 207.691406 C 242.304688 207.601562 242.886719 207.351562 243.613281 206.824219 C 244.269531 206.339844 245.03125 205.617188 245.695312 204.539062 C 246.363281 203.480469 246.921875 202.074219 247.074219 200.386719 C 247.238281 198.539062 246.980469 196.511719 246.136719 194.761719 Z M 223.9375 205.714844 C 225.136719 204.914062 226.1875 203.882812 227.023438 202.648438 C 227.847656 201.414062 228.449219 199.972656 228.640625 198.429688 C 228.839844 196.886719 228.605469 195.269531 227.964844 193.851562 C 227.320312 192.433594 226.273438 191.210938 224.980469 190.410156 C 224.671875 190.21875 224.40625 190.109375 224.238281 190.035156 C 224.070312 189.960938 224.003906 189.902344 224.003906 189.902344 C 224.003906 189.902344 224.070312 189.960938 224.171875 190.109375 C 224.277344 190.25 224.414062 190.492188 224.605469 190.785156 C 225.386719 191.992188 225.972656 193.234375 226.378906 194.503906 C 226.789062 195.761719 227.015625 197.0625 227.003906 198.355469 C 226.980469 200.921875 226.023438 203.683594 223.902344 205.683594 C 223.621094 205.964844 223.59375 205.933594 223.9375 205.714844 Z M 220.660156 219.796875 C 218.734375 221.332031 216.160156 222.363281 213.382812 222.046875 C 212.984375 222.015625 213 221.972656 213.367188 222.097656 C 214.691406 222.488281 216.101562 222.632812 217.519531 222.480469 C 218.933594 222.332031 220.359375 221.898438 221.628906 221.113281 C 222.894531 220.332031 223.972656 219.222656 224.679688 217.914062 C 225.394531 216.613281 225.746094 215.128906 225.6875 213.675781 C 225.671875 213.328125 225.621094 213.0625 225.589844 212.894531 C 225.5625 212.71875 225.570312 212.636719 225.570312 212.636719 C 225.597656 212.636719 225.464844 212.96875 225.164062 213.578125 C 224.597656 214.84375 223.953125 215.996094 223.210938 217.039062 C 222.46875 218.089844 221.628906 219.011719 220.660156 219.796875 Z M 215.015625 174.175781 C 214.96875 174.027344 214.910156 173.84375 214.832031 173.636719 C 214.160156 171.960938 212.78125 170.535156 211.125 169.660156 C 209.464844 168.765625 207.488281 168.417969 205.605469 168.699219 C 203.71875 168.976562 201.988281 169.816406 200.585938 170.976562 C 199.183594 172.136719 198.101562 173.617188 197.417969 175.210938 C 197.234375 175.667969 197.199219 175.652344 197.460938 175.234375 C 198.34375 173.769531 199.617188 172.542969 201.085938 171.703125 C 202.554688 170.859375 204.195312 170.382812 205.796875 170.316406 C 207.398438 170.242188 208.964844 170.59375 210.414062 171.210938 C 211.867188 171.828125 213.222656 172.695312 214.390625 173.917969 C 214.667969 174.21875 214.898438 174.445312 215.015625 174.621094 C 215.148438 174.785156 215.199219 174.878906 215.199219 174.878906 C 215.199219 174.878906 215.160156 174.785156 215.109375 174.578125 C 215.074219 174.445312 215.042969 174.320312 215.015625 174.175781 Z M 195.707031 189.183594 C 194.875 190.441406 194.390625 191.941406 194.324219 193.460938 C 194.25 194.96875 194.558594 196.46875 195.132812 197.804688 C 195.707031 199.144531 196.535156 200.339844 197.527344 201.324219 C 197.816406 201.597656 197.785156 201.613281 197.566406 201.296875 C 196.777344 200.179688 196.234375 198.878906 195.976562 197.554688 C 195.71875 196.21875 195.726562 194.871094 195.949219 193.59375 C 196.175781 192.328125 196.617188 191.132812 197.199219 190.015625 C 197.785156 188.902344 198.476562 187.832031 199.386719 186.816406 C 199.609375 186.574219 199.769531 186.367188 199.894531 186.25 C 200.019531 186.125 200.085938 186.082031 200.085938 186.082031 C 200.085938 186.082031 200.011719 186.125 199.84375 186.15625 C 199.675781 186.191406 199.410156 186.242188 199.085938 186.375 C 197.726562 186.90625 196.542969 187.925781 195.707031 189.183594 Z M 180.828125 188.910156 C 181.511719 187.851562 182.320312 186.867188 183.378906 185.992188 C 183.636719 185.78125 183.828125 185.605469 183.96875 185.507812 C 184.113281 185.40625 184.1875 185.375 184.1875 185.375 C 184.1875 185.375 184.113281 185.398438 183.9375 185.414062 C 183.761719 185.425781 183.496094 185.433594 183.144531 185.515625 C 181.710938 185.847656 180.386719 186.75 179.425781 187.941406 C 178.46875 189.125 177.851562 190.617188 177.683594 192.144531 C 177.507812 193.660156 177.734375 195.1875 178.226562 196.5625 C 178.726562 197.945312 179.476562 199.1875 180.394531 200.253906 C 180.667969 200.546875 180.628906 200.570312 180.433594 200.230469 C 179.726562 199.046875 179.261719 197.710938 179.078125 196.355469 C 178.894531 195.003906 178.976562 193.636719 179.292969 192.375 C 179.601562 191.125 180.144531 189.96875 180.828125 188.910156 Z M 231.390625 181.765625 C 232.582031 183.441406 233.515625 185.441406 233.824219 187.726562 C 233.882812 188.050781 233.839844 188.050781 233.875 187.726562 C 233.957031 186.589844 233.949219 185.449219 233.792969 184.289062 C 233.632812 183.132812 233.316406 181.964844 232.757812 180.878906 C 232.207031 179.796875 231.414062 178.8125 230.433594 178.085938 C 229.449219 177.363281 228.273438 176.894531 227.0625 176.785156 C 226.773438 176.761719 226.546875 176.785156 226.398438 176.796875 C 226.253906 176.804688 226.1875 176.777344 226.1875 176.777344 C 226.195312 176.753906 226.4375 176.929688 226.878906 177.277344 C 228.714844 178.664062 230.183594 180.089844 231.390625 181.765625 Z M 191.488281 171.183594 C 191.355469 171.167969 191.148438 171.132812 190.875 171.152344 C 189.746094 171.199219 188.628906 171.609375 187.679688 172.285156 C 186.730469 172.960938 185.960938 173.902344 185.480469 174.976562 C 184.496094 177.136719 184.730469 179.671875 185.8125 181.515625 C 185.980469 181.773438 185.9375 181.78125 185.863281 181.496094 C 185.554688 180.503906 185.539062 179.429688 185.746094 178.429688 C 185.960938 177.429688 186.394531 176.503906 186.9375 175.703125 C 187.480469 174.902344 188.121094 174.21875 188.796875 173.570312 C 189.480469 172.917969 190.207031 172.292969 191.046875 171.652344 C 191.449219 171.316406 191.683594 171.160156 191.683594 171.183594 C 191.683594 171.183594 191.625 171.199219 191.488281 171.183594 Z M 191.683594 210.308594 C 191.265625 209.851562 191.066406 209.585938 191.089844 209.574219 C 191.089844 209.574219 191.113281 209.652344 191.132812 209.808594 C 191.140625 209.96875 191.140625 210.21875 191.207031 210.535156 C 191.472656 211.84375 192.132812 213.101562 193.066406 214.121094 C 194 215.144531 195.214844 215.929688 196.542969 216.371094 C 199.210938 217.269531 202.1875 216.746094 204.3125 215.285156 C 204.613281 215.070312 204.628906 215.101562 204.296875 215.246094 C 203.136719 215.753906 201.851562 215.9375 200.609375 215.835938 C 199.367188 215.738281 198.175781 215.371094 197.117188 214.84375 C 196.058594 214.320312 195.109375 213.636719 194.226562 212.878906 C 193.339844 212.109375 192.507812 211.277344 191.683594 210.308594 Z M 191.683594 210.308594 " fill-opacity="1" fill-rule="nonzero"/><path fill="#a10017" d="M 199.144531 103.597656 L 198.953125 105.472656 C 198.941406 105.554688 198.933594 105.632812 198.925781 105.714844 C 198.917969 105.796875 198.910156 105.882812 198.902344 105.957031 L 198.894531 106.039062 C 197.308594 119.429688 183.796875 128.964844 168.539062 127.382812 C 153.28125 125.796875 142.019531 113.691406 143.210938 100.261719 L 143.203125 100.261719 L 143.453125 97.820312 C 144.535156 87.355469 153.808594 79.753906 164.160156 80.828125 C 165.6875 80.988281 167.121094 81.414062 168.421875 82.046875 C 171.363281 83.480469 174.765625 83.839844 177.941406 83.03125 C 179.351562 82.671875 180.84375 82.554688 182.359375 82.714844 C 192.714844 83.796875 200.226562 93.140625 199.144531 103.597656 Z M 199.144531 103.597656 " fill-opacity="1" fill-rule="nonzero"/><g clip-path="url(#5409024e76)"><path fill="#a10017" d="M 198.867188 106.347656 L 198.917969 106.390625 L 198.785156 106.40625 Z M 199.160156 106.074219 L 198.808594 106.296875 L 198.859375 106.347656 L 199.058594 106.214844 C 199.101562 106.148438 199.136719 106.097656 199.160156 106.074219 Z M 198.917969 106.390625 L 198.976562 106.441406 L 198.984375 106.421875 C 198.992188 106.40625 198.992188 106.390625 199 106.382812 Z M 182.777344 46.929688 C 186.546875 39.09375 191.546875 31.839844 197.867188 25.839844 C 200.011719 23.804688 205.597656 20.328125 202.46875 16.835938 C 200.960938 15.152344 198.941406 16.144531 197.410156 17.226562 C 195.726562 18.417969 194.265625 19.886719 192.972656 21.488281 C 188.398438 27.15625 185.128906 33.816406 182.371094 40.519531 C 179.402344 47.730469 177.066406 55.199219 175.15625 62.753906 C 173.558594 69.089844 172.257812 75.511719 171.332031 81.980469 C 170.574219 81.789062 169.832031 81.527344 169.121094 81.195312 C 167.703125 80.488281 166.039062 79.960938 164.394531 79.796875 C 163.578125 79.753906 162.769531 79.679688 161.960938 79.695312 C 161.152344 79.753906 160.335938 79.738281 159.535156 79.894531 C 156.316406 80.34375 153.207031 81.578125 150.605469 83.53125 C 150.28125 83.773438 149.957031 84.011719 149.640625 84.261719 L 148.738281 85.082031 C 148.113281 85.597656 147.621094 86.257812 147.0625 86.839844 C 146.054688 88.105469 145.121094 89.441406 144.4375 90.917969 C 144.261719 91.285156 144.078125 91.640625 143.917969 92.015625 L 143.503906 93.160156 C 143.1875 93.910156 143.0625 94.71875 142.835938 95.492188 C 142.675781 96.285156 142.570312 97.09375 142.460938 97.878906 L 142.226562 100.171875 L 142.101562 101.371094 L 142.160156 101.363281 C 142.050781 104.4375 142.578125 107.523438 143.667969 110.390625 C 144.894531 113.625 146.8125 116.570312 149.1875 119.046875 C 153.925781 124.039062 160.453125 127.125 167.171875 128.03125 C 173.890625 128.972656 180.960938 127.839844 186.871094 124.4375 C 189.824219 122.753906 192.480469 120.546875 194.589844 117.878906 C 196.710938 115.21875 198.257812 112.101562 199.042969 108.789062 C 199.277344 107.574219 199.34375 106.75 199.328125 106.347656 L 199.351562 106.347656 L 199.308594 106.199219 C 199.308594 106.179688 199.300781 106.171875 199.300781 106.15625 L 199.285156 106.089844 C 199.261719 105.996094 199.226562 105.988281 199.175781 106.082031 L 199.109375 106.207031 L 199.078125 106.222656 C 199.050781 106.265625 199.027344 106.324219 199.011719 106.390625 L 199.019531 106.390625 L 198.992188 106.441406 C 198.84375 106.847656 198.660156 107.582031 198.441406 108.648438 C 197.652344 111.867188 196.101562 114.875 194.007812 117.429688 C 191.921875 119.988281 189.3125 122.105469 186.429688 123.699219 C 180.652344 126.914062 173.789062 127.90625 167.320312 126.90625 C 160.84375 125.941406 154.640625 122.878906 150.214844 118.078125 C 147.996094 115.695312 146.230469 112.894531 145.128906 109.859375 C 144.011719 106.824219 143.585938 103.546875 143.902344 100.34375 L 143.9375 100.003906 L 144.152344 98.0625 C 144.269531 97.320312 144.371094 96.59375 144.527344 95.867188 C 144.746094 95.160156 144.863281 94.425781 145.160156 93.742188 L 145.554688 92.707031 C 145.695312 92.367188 145.878906 92.042969 146.039062 91.707031 C 146.671875 90.375 147.539062 89.164062 148.464844 88.023438 C 149.457031 86.941406 150.488281 85.882812 151.714844 85.054688 C 154.082031 83.3125 156.898438 82.222656 159.800781 81.835938 C 160.519531 81.695312 161.261719 81.722656 161.984375 81.679688 C 162.710938 81.664062 163.445312 81.746094 164.171875 81.789062 C 165.605469 81.953125 166.9375 82.363281 168.261719 83.039062 C 169.164062 83.464844 170.105469 83.789062 171.074219 84.03125 C 170.957031 84.964844 170.839844 85.898438 170.730469 86.824219 C 170.539062 88.523438 173.207031 88.515625 173.398438 86.824219 C 173.492188 86.023438 173.597656 85.230469 173.707031 84.429688 C 175.109375 84.523438 176.515625 84.421875 177.890625 84.113281 C 179.359375 83.738281 180.710938 83.621094 182.144531 83.753906 C 182.851562 83.863281 183.578125 83.964844 184.285156 84.105469 C 184.980469 84.3125 185.703125 84.429688 186.371094 84.722656 C 191.855469 86.640625 196.199219 91.449219 197.609375 97.078125 C 198.34375 99.902344 198.34375 102.113281 198.433594 103.613281 C 198.46875 105.171875 198.660156 105.964844 198.917969 105.988281 C 199.183594 106.023438 199.519531 105.273438 199.886719 103.765625 C 200.203125 102.214844 200.484375 99.710938 199.667969 96.542969 C 198.109375 90.265625 193.257812 84.878906 187.105469 82.746094 C 186.355469 82.429688 185.554688 82.289062 184.769531 82.0625 C 183.980469 81.886719 183.179688 81.789062 182.371094 81.671875 C 180.734375 81.503906 178.984375 81.6875 177.46875 82.085938 C 176.324219 82.355469 175.148438 82.445312 173.972656 82.394531 C 175.640625 70.390625 178.632812 58.460938 182.734375 47.089844 C 182.71875 47.015625 182.753906 46.972656 182.777344 46.929688 Z M 162.792969 179.953125 C 153.421875 175.011719 144.011719 170.042969 134.582031 165.074219 C 125.1875 160.078125 115.859375 154.984375 106.710938 149.574219 C 105.601562 148.925781 104.785156 148.390625 104.234375 148.058594 C 103.6875 147.722656 103.402344 147.574219 103.402344 147.574219 C 103.402344 147.574219 103.695312 147.707031 104.292969 147.941406 C 104.894531 148.175781 105.8125 148.492188 107.011719 148.964844 C 116.917969 152.933594 126.378906 157.894531 135.566406 163.289062 C 144.769531 168.675781 153.742188 174.417969 162.828125 179.894531 C 164.113281 180.6875 164.136719 180.648438 162.792969 179.953125 Z M 162.792969 179.953125 " fill-opacity="1" fill-rule="nonzero"/></g><path fill="#f9aabb" d="M 35.074219 182.65625 C 38.765625 180.832031 42.441406 179.097656 45.960938 177.488281 C 47.292969 176.871094 48.613281 176.277344 49.894531 175.695312 C 51.253906 175.652344 52.621094 175.628906 53.988281 175.601562 C 61.015625 175.453125 68.046875 175.496094 75.074219 175.71875 C 83.742188 176.003906 92.179688 176.804688 100.550781 178.277344 C 104.101562 180.039062 107.496094 181.796875 110.722656 183.523438 C 98.625 183.613281 86.601562 183.289062 74.5 183.007812 C 67.445312 182.847656 60.390625 182.871094 53.347656 183.089844 C 47.167969 183.28125 41.132812 183.757812 35.074219 182.65625 Z M 141.195312 201.757812 C 140.660156 201.398438 140.109375 201.03125 139.535156 200.648438 C 131.1875 198.246094 122.300781 197.105469 113.832031 195.953125 C 102.234375 194.378906 90.554688 193.636719 78.867188 193.136719 C 67.769531 192.660156 56.664062 192.585938 45.5625 192.644531 C 37.582031 192.683594 28.851562 191.976562 20.707031 193.203125 C 18.972656 195.445312 17.574219 197.921875 16.539062 200.5625 C 25.71875 202.441406 35.789062 201.113281 45.011719 201.039062 C 56.140625 200.945312 67.277344 201.039062 78.40625 201.3125 C 89.503906 201.589844 100.574219 202.257812 111.648438 202.949219 C 122.820312 203.648438 134.097656 205.566406 145.277344 205.539062 C 145.328125 205.539062 145.371094 205.539062 145.410156 205.53125 C 145.128906 205.199219 144.835938 204.875 144.527344 204.558594 C 143.535156 203.515625 142.417969 202.574219 141.195312 201.757812 Z M 131.1875 217.460938 C 117.558594 214.179688 103.492188 213.128906 89.503906 212.417969 C 82.46875 212.058594 75.441406 211.933594 68.394531 211.945312 C 62.101562 211.953125 54.941406 211.394531 49.371094 214.792969 C 48.8125 215.144531 48.84375 216.003906 49.421875 216.3125 C 54.957031 219.261719 61.75 218.570312 67.828125 218.578125 C 74.875 218.578125 81.917969 218.722656 88.953125 218.855469 C 102.96875 219.121094 116.992188 220.070312 130.996094 219.664062 C 132.273438 219.621094 132.40625 217.753906 131.1875 217.460938 Z M 137.285156 113.675781 C 138.285156 114.886719 139.492188 115.886719 140.851562 116.660156 C 141.535156 117.054688 142.261719 117.394531 143.027344 117.585938 C 143.695312 117.753906 144.554688 117.976562 145.230469 117.804688 C 145.585938 117.710938 145.535156 117.246094 145.269531 117.085938 C 144.710938 116.734375 143.953125 116.636719 143.34375 116.359375 C 142.703125 116.078125 142.058594 115.8125 141.453125 115.460938 C 140.226562 114.75 139.117188 113.785156 138.207031 112.691406 C 137.257812 111.558594 136.507812 110.257812 135.972656 108.875 C 135.414062 107.441406 135.175781 105.90625 134.597656 104.488281 C 134.515625 104.28125 134.199219 104.273438 134.148438 104.515625 C 133.824219 106.148438 134.273438 107.832031 134.847656 109.375 C 135.425781 110.917969 136.234375 112.402344 137.285156 113.675781 Z M 139.441406 129.375 C 145.035156 130.457031 150.929688 129.53125 156.050781 127.066406 C 156.632812 126.78125 156.285156 125.847656 155.683594 126.113281 C 150.6875 128.359375 145.113281 128.957031 139.742188 127.882812 C 137.25 127.382812 134.847656 126.5 132.605469 125.289062 C 130.4375 124.113281 128.472656 122.605469 126.34375 121.371094 C 126.144531 121.253906 125.945312 121.503906 126.054688 121.6875 C 128.753906 126.074219 134.597656 128.433594 139.441406 129.375 Z M 168.03125 131.417969 C 168.445312 130.910156 167.703125 130.367188 167.261719 130.792969 C 163.636719 134.277344 159.019531 136.761719 154.175781 138.0625 C 151.40625 138.804688 148.554688 139.21875 145.6875 139.335938 C 142.828125 139.453125 139.960938 139.355469 137.101562 139.527344 C 136.714844 139.554688 136.707031 140.0625 137.042969 140.171875 C 142.6875 142.046875 149.363281 141.523438 154.992188 139.804688 C 160.042969 138.246094 164.652344 135.519531 168.03125 131.417969 Z M 209.957031 131.800781 C 209.597656 129.589844 209.007812 127.433594 208.15625 125.363281 C 206.464844 121.246094 203.945312 117.644531 200.578125 114.734375 C 199.945312 114.183594 199.101562 115.101562 199.695312 115.695312 C 202.621094 118.621094 205.019531 122.214844 206.53125 126.066406 C 207.261719 127.941406 207.839844 129.898438 208.179688 131.882812 C 208.515625 133.835938 208.40625 136.027344 209.105469 137.886719 C 209.207031 138.144531 209.597656 138.210938 209.730469 137.9375 C 210.597656 136.109375 210.273438 133.734375 209.957031 131.800781 Z M 191.683594 122.695312 C 191.457031 122.4375 191.015625 122.761719 191.140625 123.054688 C 192.550781 126.597656 193.882812 130.175781 194.140625 134.019531 C 194.265625 135.917969 194.175781 137.820312 193.839844 139.695312 C 193.53125 141.472656 192.78125 143.273438 192.757812 145.074219 C 192.75 145.421875 193.199219 145.515625 193.414062 145.296875 C 194.757812 143.957031 195.226562 141.6875 195.523438 139.871094 C 195.859375 137.851562 195.949219 135.777344 195.792969 133.734375 C 195.476562 129.785156 194.339844 125.738281 191.683594 122.695312 Z M 180.226562 129.148438 C 179.636719 130.257812 179.386719 131.5 179.007812 132.699219 C 178.609375 133.984375 178.101562 135.226562 177.507812 136.4375 C 176.351562 138.8125 174.824219 140.988281 173.066406 142.964844 C 171.324219 144.929688 169.304688 146.632812 167.078125 148.03125 C 165.972656 148.726562 164.84375 149.339844 163.667969 149.917969 C 162.769531 150.359375 161.261719 150.941406 160.984375 152 C 160.933594 152.203125 161.035156 152.453125 161.195312 152.578125 C 162.136719 153.308594 163.886719 152.617188 164.855469 152.183594 C 166.144531 151.601562 167.40625 150.917969 168.582031 150.117188 C 170.871094 148.558594 172.949219 146.648438 174.722656 144.515625 C 176.492188 142.398438 177.933594 139.988281 179.035156 137.460938 C 180.070312 135.078125 181.386719 131.875 180.835938 129.25 C 180.761719 128.957031 180.386719 128.859375 180.226562 129.148438 Z M 194.148438 98.511719 C 193.847656 96.183594 193.191406 93.816406 192.039062 91.617188 C 191.457031 90.523438 190.765625 89.472656 189.921875 88.53125 C 189.082031 87.589844 188.03125 86.679688 186.664062 86.171875 C 185.980469 85.929688 185.488281 86.53125 185.378906 87.179688 C 185.269531 87.839844 185.355469 88.515625 185.738281 88.664062 C 187.40625 89.347656 189.03125 91.074219 190.363281 92.777344 C 191.691406 94.535156 192.75 96.527344 193.390625 98.679688 C 193.484375 98.988281 194.199219 98.84375 194.148438 98.511719 Z M 194.148438 98.511719 " fill-opacity="1" fill-rule="nonzero"/><path fill="#dd7b4a" d="M 249.023438 215.644531 C 249.773438 222.148438 244.164062 226.839844 239.210938 230.066406 C 236.710938 231.695312 234.074219 227.75 236.609375 226.28125 C 241.292969 223.566406 244.753906 220.238281 247.023438 215.269531 C 247.464844 214.285156 248.90625 214.636719 249.023438 215.644531 Z M 241.160156 237.472656 C 236.425781 237.789062 231.933594 238.054688 227.664062 235.613281 C 224.972656 234.078125 222.660156 238.570312 225.464844 239.890625 C 230.582031 242.289062 237.5 242.839844 241.503906 238.148438 C 241.726562 237.878906 241.511719 237.445312 241.160156 237.472656 Z M 214 239.207031 C 213.566406 238.847656 212.839844 239.238281 212.933594 239.804688 C 213.574219 243.75 212.699219 247.582031 210.558594 250.902344 C 208.871094 253.503906 213.28125 255.613281 214.925781 252.996094 C 217.734375 248.519531 218.367188 242.796875 214 239.207031 Z M 263.980469 227.035156 C 259.144531 225.234375 253.324219 228.691406 250.382812 232.578125 C 248.765625 234.710938 251.917969 237.503906 253.507812 235.34375 C 255.824219 232.195312 259.917969 228.96875 263.796875 228.109375 C 264.269531 228 264.570312 227.25 263.980469 227.035156 Z M 169.363281 221.691406 C 167.5625 221.179688 166.003906 221.773438 164.226562 222.066406 C 162.144531 222.40625 160.078125 222.273438 158.015625 221.855469 C 155.609375 221.371094 154.941406 225.058594 157.316406 225.597656 C 160.910156 226.417969 168.1875 226.742188 169.738281 222.398438 C 169.855469 222.074219 169.699219 221.78125 169.363281 221.691406 Z M 162.042969 218.296875 C 162.859375 216.886719 163.269531 215.195312 164.019531 213.71875 C 164.871094 212.042969 165.6875 210.492188 167.097656 209.21875 C 167.773438 208.609375 167.089844 207.632812 166.277344 208.066406 C 162.902344 209.882812 158.71875 212.84375 158.449219 217.105469 C 158.316406 219.238281 160.910156 220.265625 162.042969 218.296875 Z M 153.207031 234.777344 C 149.878906 234.378906 145.929688 230.683594 145.210938 227.410156 C 144.652344 224.867188 140.609375 226.109375 141.308594 228.683594 C 142.769531 234.019531 147.804688 236.769531 153.117188 236.355469 C 154 236.296875 154.132812 234.886719 153.207031 234.777344 Z M 165.578125 239.730469 C 164.410156 239.082031 163.5625 237.511719 162.9375 236.386719 C 162.277344 235.195312 161.46875 233.851562 161.027344 232.5625 C 160.644531 231.445312 158.984375 231.660156 158.777344 232.769531 C 158.359375 235.011719 158.300781 236.835938 159.277344 238.996094 C 160.203125 241.039062 161.660156 242.855469 163.578125 244.015625 C 166.164062 245.574219 168.246094 241.222656 165.578125 239.730469 Z M 194.492188 251.703125 C 191.632812 250.828125 190.632812 255.761719 193.691406 256.394531 C 195.339844 256.738281 196.941406 256.878906 198.527344 257.539062 C 200.050781 258.179688 201.335938 259.199219 202.679688 260.148438 C 203.335938 260.613281 204.519531 260.03125 204.09375 259.148438 C 202.179688 255.085938 198.703125 252.984375 194.492188 251.703125 Z M 205.179688 239.539062 C 204.570312 242.097656 202.542969 244.382812 199.945312 245.023438 C 197.527344 245.625 194.632812 245 192.515625 243.648438 C 191.296875 245.582031 189.238281 247.058594 187.171875 247.902344 C 185.011719 248.769531 181.8125 249.191406 179.933594 247.476562 C 177.984375 245.691406 178.308594 242.449219 179.027344 239.980469 C 176.066406 240.253906 173.089844 238.863281 171.65625 236.136719 C 170.207031 233.371094 170.371094 229.359375 173.457031 227.84375 C 173.742188 227.699219 173.949219 228.160156 173.707031 228.324219 C 172.648438 229.042969 172.238281 230.808594 172.113281 232.027344 C 171.980469 233.351562 172.289062 234.738281 172.972656 235.871094 C 174.382812 238.230469 177.226562 239.222656 179.84375 238.628906 C 180.335938 238.523438 180.585938 239.113281 180.445312 239.488281 C 179.734375 241.421875 179.058594 244.5 180.417969 246.285156 C 181.8125 248.101562 184.953125 247.566406 186.769531 246.84375 C 188.753906 246.050781 190.832031 244.582031 191.847656 242.65625 C 192.015625 242.339844 192.398438 242.25 192.691406 242.464844 C 196.652344 245.425781 203.21875 244.757812 204.679688 239.4375 C 204.761719 239.136719 205.261719 239.214844 205.179688 239.539062 Z M 205.179688 239.539062 " fill-opacity="1" fill-rule="nonzero"/><path fill="#ddd7f4" d="M 284.097656 94.160156 C 260.261719 94.160156 255.152344 99.269531 255.152344 123.105469 C 255.152344 99.269531 250.039062 94.160156 226.203125 94.160156 C 250.039062 94.160156 255.152344 89.050781 255.152344 65.214844 C 255.140625 89.050781 260.253906 94.160156 284.097656 94.160156 Z M 68.246094 124.5625 C 68.246094 140.4375 64.84375 143.839844 48.96875 143.839844 C 64.84375 143.839844 68.246094 147.242188 68.246094 163.113281 C 68.246094 147.242188 71.648438 143.839844 87.519531 143.839844 C 71.648438 143.839844 68.246094 140.4375 68.246094 124.5625 Z M 177.625 156.246094 C 177.625 168.515625 175 171.144531 162.726562 171.144531 C 175 171.144531 177.625 173.769531 177.625 186.039062 C 177.625 173.769531 180.25 171.144531 192.523438 171.144531 C 180.25 171.152344 177.625 168.515625 177.625 156.246094 Z M 305.523438 296.679688 C 305.523438 308.953125 302.894531 311.578125 290.625 311.578125 C 302.894531 311.578125 305.523438 314.203125 305.523438 326.476562 C 305.523438 314.203125 308.148438 311.578125 320.421875 311.578125 C 308.15625 311.585938 305.523438 308.953125 305.523438 296.679688 Z M 110.722656 60.910156 C 110.722656 73.183594 108.097656 75.808594 95.824219 75.808594 C 108.097656 75.808594 110.722656 78.4375 110.722656 90.707031 C 110.722656 78.4375 113.347656 75.808594 125.621094 75.808594 C 113.355469 75.808594 110.722656 73.183594 110.722656 60.910156 Z M 110.722656 60.910156 " fill-opacity="1" fill-rule="nonzero"/><path fill="#a10017" d="M 125.9375 75.277344 C 122.226562 75.269531 117.132812 75.460938 114.296875 72.566406 C 111.449219 69.648438 111.582031 64.589844 111.574219 60.828125 C 111.574219 60.042969 109.871094 60.363281 109.871094 61.003906 C 109.863281 64.671875 110.046875 69.722656 107.335938 72.617188 C 104.667969 75.46875 99.691406 75.269531 96.132812 75.277344 C 95.78125 75.277344 95.171875 75.375 95.023438 75.761719 C 94.890625 76.109375 95.140625 76.351562 95.507812 76.351562 C 99.21875 76.359375 104.3125 76.167969 107.144531 79.0625 C 109.996094 81.980469 109.863281 87.039062 109.871094 90.800781 C 109.871094 91.089844 110.113281 91.234375 110.414062 91.257812 C 110.488281 91.265625 110.570312 91.257812 110.65625 91.25 C 110.679688 91.25 110.695312 91.25 110.722656 91.25 C 111.148438 91.191406 111.574219 90.949219 111.574219 90.625 C 111.582031 86.957031 111.398438 81.90625 114.105469 79.011719 C 116.773438 76.160156 121.75 76.359375 125.3125 76.351562 C 125.660156 76.351562 126.269531 76.25 126.421875 75.867188 C 126.554688 75.511719 126.304688 75.277344 125.9375 75.277344 Z M 114.933594 76.992188 C 112.773438 78.121094 111.488281 79.996094 110.78125 82.203125 C 110.554688 81.445312 110.273438 80.703125 109.898438 80.011719 C 108.519531 77.46875 105.9375 76.285156 103.195312 75.777344 C 103.195312 75.777344 103.183594 75.777344 103.183594 75.777344 C 104.34375 75.527344 105.460938 75.167969 106.503906 74.625 C 108.664062 73.5 109.945312 71.625 110.65625 69.414062 C 110.878906 70.175781 111.164062 70.917969 111.539062 71.609375 C 112.914062 74.152344 115.5 75.335938 118.242188 75.84375 C 118.242188 75.84375 118.25 75.84375 118.25 75.84375 C 117.101562 76.09375 115.972656 76.453125 114.933594 76.992188 Z M 320.738281 311.042969 C 317.027344 311.035156 311.933594 311.226562 309.097656 308.335938 C 306.246094 305.417969 306.382812 300.355469 306.371094 296.597656 C 306.371094 295.8125 304.671875 296.128906 304.671875 296.773438 C 304.664062 300.441406 304.847656 305.492188 302.136719 308.386719 C 299.46875 311.238281 294.492188 311.035156 290.933594 311.042969 C 290.582031 311.042969 289.972656 311.144531 289.824219 311.527344 C 289.691406 311.878906 289.941406 312.121094 290.308594 312.121094 C 294.019531 312.128906 299.113281 311.9375 301.945312 314.828125 C 304.796875 317.746094 304.664062 322.808594 304.671875 326.566406 C 304.671875 326.859375 304.914062 327 305.214844 327.027344 C 305.289062 327.035156 305.371094 327.027344 305.457031 327.019531 C 305.480469 327.019531 305.496094 327.019531 305.523438 327.019531 C 305.949219 326.960938 306.371094 326.71875 306.371094 326.394531 C 306.382812 322.726562 306.199219 317.671875 308.90625 314.78125 C 311.574219 311.929688 316.550781 312.128906 320.113281 312.121094 C 320.460938 312.121094 321.070312 312.019531 321.222656 311.636719 C 321.355469 311.285156 321.105469 311.042969 320.738281 311.042969 Z M 309.742188 312.769531 C 307.582031 313.894531 306.296875 315.773438 305.589844 317.980469 C 305.363281 317.222656 305.082031 316.480469 304.707031 315.789062 C 303.328125 313.246094 300.746094 312.0625 298.003906 311.554688 C 298.003906 311.554688 297.996094 311.554688 297.996094 311.554688 C 299.152344 311.304688 300.269531 310.945312 301.3125 310.402344 C 303.472656 309.277344 304.753906 307.402344 305.464844 305.191406 C 305.6875 305.949219 305.972656 306.691406 306.347656 307.382812 C 307.722656 309.925781 310.308594 311.113281 313.050781 311.621094 C 313.050781 311.621094 313.058594 311.621094 313.058594 311.621094 C 311.898438 311.871094 310.773438 312.226562 309.742188 312.769531 Z M 192.839844 170.609375 C 189.128906 170.601562 184.035156 170.792969 181.203125 167.898438 C 178.351562 164.980469 178.484375 159.921875 178.476562 156.160156 C 178.476562 155.378906 176.777344 155.695312 176.777344 156.335938 C 176.765625 160.003906 176.949219 165.058594 174.242188 167.949219 C 171.574219 170.800781 166.597656 170.601562 163.035156 170.609375 C 162.6875 170.609375 162.078125 170.710938 161.925781 171.09375 C 161.792969 171.441406 162.042969 171.683594 162.410156 171.683594 C 166.121094 171.691406 171.214844 171.5 174.050781 174.394531 C 176.902344 177.3125 176.765625 182.371094 176.777344 186.132812 C 176.777344 186.425781 177.015625 186.566406 177.316406 186.589844 C 177.390625 186.597656 177.476562 186.589844 177.558594 186.582031 C 177.585938 186.582031 177.601562 186.582031 177.625 186.582031 C 178.050781 186.523438 178.476562 186.28125 178.476562 185.957031 C 178.484375 182.289062 178.300781 177.238281 181.011719 174.34375 C 183.679688 171.492188 188.65625 171.691406 192.214844 171.683594 C 192.566406 171.683594 193.175781 171.585938 193.324219 171.199219 C 193.457031 170.851562 193.199219 170.609375 192.839844 170.609375 Z M 181.835938 172.335938 C 179.675781 173.460938 178.394531 175.335938 177.683594 177.546875 C 177.460938 176.785156 177.175781 176.042969 176.800781 175.351562 C 175.425781 172.808594 172.839844 171.625 170.097656 171.117188 C 170.097656 171.117188 170.089844 171.117188 170.089844 171.117188 C 171.25 170.867188 172.367188 170.507812 173.40625 169.96875 C 175.566406 168.839844 176.851562 166.964844 177.558594 164.757812 C 177.785156 165.515625 178.066406 166.257812 178.441406 166.949219 C 179.820312 169.492188 182.402344 170.675781 185.144531 171.183594 C 185.144531 171.183594 185.152344 171.183594 185.152344 171.183594 C 183.996094 171.433594 182.878906 171.792969 181.835938 172.335938 Z M 87.835938 143.304688 C 83.585938 143.296875 78.660156 143.378906 74.789062 141.320312 C 71.671875 139.664062 70.304688 136.511719 69.695312 133.175781 C 69.171875 130.316406 69.105469 127.382812 69.097656 124.480469 C 69.097656 123.699219 67.394531 124.015625 67.394531 124.65625 C 67.386719 128.90625 67.453125 133.800781 65.484375 137.695312 C 63.925781 140.789062 60.992188 142.15625 57.707031 142.738281 C 54.941406 143.230469 52.097656 143.296875 49.289062 143.304688 C 48.9375 143.304688 48.328125 143.40625 48.179688 143.789062 C 48.046875 144.140625 48.296875 144.382812 48.660156 144.382812 C 52.914062 144.390625 57.839844 144.304688 61.710938 146.367188 C 64.828125 148.023438 66.195312 151.175781 66.804688 154.511719 C 67.328125 157.371094 67.394531 160.304688 67.402344 163.207031 C 67.402344 163.496094 67.644531 163.640625 67.945312 163.664062 C 68.445312 163.707031 69.105469 163.429688 69.105469 163.03125 C 69.113281 158.777344 69.046875 153.886719 71.011719 149.992188 C 72.570312 146.898438 75.507812 145.53125 78.792969 144.949219 C 81.558594 144.457031 84.402344 144.390625 87.210938 144.382812 C 87.5625 144.382812 88.171875 144.28125 88.320312 143.898438 C 88.453125 143.539062 88.203125 143.304688 87.835938 143.304688 Z M 73.78125 145.507812 C 70.769531 147.089844 69.128906 149.832031 68.3125 152.984375 C 68.003906 151.726562 67.570312 150.507812 66.953125 149.375 C 65.1875 146.097656 61.84375 144.582031 58.316406 143.9375 C 58.097656 143.898438 57.875 143.882812 57.65625 143.839844 C 59.433594 143.515625 61.152344 143.003906 62.726562 142.171875 C 65.734375 140.589844 67.378906 137.84375 68.195312 134.695312 C 68.503906 135.953125 68.9375 137.167969 69.554688 138.304688 C 71.320312 141.578125 74.664062 143.097656 78.191406 143.738281 C 78.40625 143.78125 78.632812 143.796875 78.851562 143.839844 C 77.066406 144.164062 75.347656 144.671875 73.78125 145.507812 Z M 284.40625 93.625 C 280.460938 93.625 276.484375 93.527344 272.574219 92.949219 C 269.824219 92.550781 267.03125 91.890625 264.570312 90.558594 C 259.820312 88 257.761719 83.148438 256.859375 78.050781 C 256.109375 73.792969 256 69.441406 255.992188 65.121094 C 255.992188 64.339844 254.292969 64.65625 254.292969 65.296875 C 254.292969 69.171875 254.191406 73.066406 253.648438 76.910156 C 253.257812 79.703125 252.632812 82.53125 251.339844 85.054688 C 248.929688 89.75 244.371094 91.859375 239.359375 92.75 C 235.132812 93.507812 230.789062 93.609375 226.511719 93.617188 C 226.164062 93.617188 225.554688 93.71875 225.40625 94.101562 C 225.269531 94.453125 225.519531 94.691406 225.886719 94.691406 C 229.832031 94.691406 233.808594 94.792969 237.71875 95.367188 C 240.46875 95.769531 243.261719 96.425781 245.722656 97.761719 C 250.472656 100.320312 252.53125 105.171875 253.433594 110.265625 C 254.183594 114.527344 254.292969 118.878906 254.300781 123.195312 C 254.300781 123.488281 254.542969 123.628906 254.84375 123.65625 C 254.910156 123.664062 254.984375 123.65625 255.058594 123.648438 C 255.09375 123.648438 255.117188 123.648438 255.152344 123.648438 C 255.574219 123.589844 256 123.347656 256 123.023438 C 256 119.144531 256.101562 115.253906 256.644531 111.410156 C 257.035156 108.617188 257.660156 105.789062 258.953125 103.261719 C 261.363281 98.570312 265.921875 96.460938 270.933594 95.570312 C 275.160156 94.808594 279.503906 94.710938 283.78125 94.703125 C 284.128906 94.703125 284.738281 94.601562 284.886719 94.21875 C 285.023438 93.859375 284.773438 93.625 284.40625 93.625 Z M 263.554688 96.902344 C 258.601562 99.546875 256.242188 104.378906 255.234375 109.726562 C 255.210938 109.859375 255.191406 109.992188 255.167969 110.125 C 254.726562 107.507812 254.035156 104.914062 252.765625 102.570312 C 250.140625 97.726562 245.1875 95.511719 239.96875 94.558594 C 239.136719 94.410156 238.292969 94.285156 237.460938 94.175781 C 240.71875 93.734375 243.894531 92.925781 246.738281 91.410156 C 251.691406 88.765625 254.050781 83.929688 255.058594 78.585938 C 255.085938 78.453125 255.101562 78.320312 255.125 78.1875 C 255.566406 80.804688 256.257812 83.398438 257.527344 85.738281 C 260.152344 90.582031 265.105469 92.800781 270.324219 93.75 C 271.15625 93.902344 272 94.027344 272.832031 94.132812 C 269.574219 94.578125 266.398438 95.386719 263.554688 96.902344 Z M 263.554688 96.902344 " fill-opacity="1" fill-rule="nonzero"/></svg>